<mxfile host="app.diagrams.net" modified="2024-07-22T06:37:53.598Z" agent="Mozilla/5.0 (Windows NT 10.0; Win64; x64) AppleWebKit/537.36 (KHTML, like Gecko) Chrome/126.0.0.0 Safari/537.36" version="24.7.1" etag="HIw9tO3oXzMDX6wbEWU0" type="github">
  <diagram name="第 1 页" id="mBcNmizgc_2d_Brw_Dwj">
    <mxGraphModel>
      <root>
        <mxCell id="0" />
        <mxCell id="1" parent="0" />
      </root>
    </mxGraphModel>
  </diagram>
</mxfile>
